<svg width="50" height="50" viewBox="0 0 50 50" fill="none" xmlns="http://www.w3.org/2000/svg">
<path d="M35.6406 10H13.3594C10.9556 10 9 11.9556 9 14.3594V36.6406C9 39.0444 10.9556 41 13.3594 41H35.6406C38.0444 41 40 39.0444 40 36.6406V14.3594C40 11.9556 38.0444 10 35.6406 10ZM38.0625 36.6406C38.0625 37.976 36.976 39.0625 35.6406 39.0625H13.3594C12.024 39.0625 10.9375 37.976 10.9375 36.6406V14.3594C10.9375 13.024 12.024 11.9375 13.3594 11.9375H35.6406C36.976 11.9375 38.0625 13.024 38.0625 14.3594V36.6406Z" fill="#B3B3B3" stroke="#B3B3B3" stroke-width="0.1"/>
<path d="M32.8199 17.3888C32.7739 17.3317 32.7223 17.2792 32.6646 17.2337C28.1354 12.7925 20.9161 12.7961 16.3911 17.2391C16.3325 17.286 16.2788 17.3387 16.2325 17.3979C11.7893 21.9309 11.8002 29.1509 16.2414 33.6719C16.2873 33.729 16.3389 33.7815 16.3967 33.827C20.9176 38.2601 28.1372 38.2711 32.6689 33.8227C32.7251 33.778 32.7758 33.727 32.8208 33.6708C37.2859 29.1245 37.2508 21.8992 32.8199 17.3888ZM31.6893 32.0505C30.4431 31.8613 30.3781 31.4549 30.292 30.2559C30.2168 29.2085 30.0994 27.5787 28.1531 26.9044C28.2603 26.6227 28.3352 26.3254 28.374 26.0169C29.428 25.2207 29.7655 25.4725 30.6777 26.2626C31.7102 27.1567 32.6806 27.7564 34.0509 27.3242C33.7126 29.1235 32.8759 30.7488 31.6893 32.0505ZM24.9851 35.2068C24.2323 34.1872 24.4766 33.8537 25.2629 32.9458C25.9505 32.1519 27.0201 30.9163 26.1202 29.0629C26.4 28.9365 26.662 28.778 26.9018 28.5919C28.2104 28.7734 28.2727 29.1885 28.3594 30.3948C28.4274 31.3423 28.53 32.7664 29.9899 33.5287C28.5514 34.5136 26.8353 35.1209 24.9851 35.2068ZM14.8541 25.9848C15.8738 25.232 16.2073 25.4762 17.1152 26.2626C17.6925 26.7626 18.503 27.4647 19.6152 27.4647C20.0324 27.4647 20.4923 27.3657 20.9981 27.1201C21.1245 27.3998 21.283 27.6619 21.4691 27.9017C21.3848 28.5089 21.2136 28.9077 20.958 29.0878C20.1305 29.6711 17.6661 28.8179 16.5322 30.9896C15.5474 29.5512 14.94 27.835 14.8541 25.9848ZM17.372 19.0101C18.6182 19.1993 18.6832 19.6057 18.7693 20.8047C18.8445 21.8521 18.9619 23.4819 20.9082 24.1563C20.801 24.4379 20.7261 24.7352 20.6873 25.0437C19.6333 25.8399 19.2956 25.588 18.3836 24.798C17.6648 24.1756 16.584 23.2398 15.0104 23.7361C15.3487 21.937 16.1855 20.3117 17.372 19.0101ZM24.0762 15.8538C24.829 16.8734 24.5847 17.2069 23.7984 18.1148C23.1108 18.9087 22.0412 20.1443 22.9411 21.9977C22.6613 22.1241 22.3993 22.2826 22.1595 22.4687C20.8509 22.2872 20.7885 21.8721 20.7019 20.6658C20.6339 19.7183 20.5313 18.2942 19.0714 17.5319C20.5099 16.547 22.226 15.9397 24.0762 15.8538ZM34.2072 25.0759C33.1876 25.8286 32.854 25.5844 31.9461 24.798C31.1522 24.1105 29.9167 23.0407 28.0632 23.9407C27.9368 23.6609 27.7783 23.3989 27.5921 23.159C27.7738 21.8505 28.1888 21.7882 29.395 21.7015C30.3427 21.6334 31.7668 21.5309 32.529 20.071C33.5139 21.5094 34.1213 23.2256 34.2072 25.0759ZM22.5931 25.5303C22.5931 24.462 23.4623 23.5928 24.5306 23.5928C25.599 23.5928 26.4681 24.462 26.4681 25.5303C26.4681 26.5987 25.599 27.4678 24.5306 27.4678C23.4623 27.4678 22.5931 26.5987 22.5931 25.5303ZM30.5482 19.4976C29.6716 20.1153 26.8731 19.1129 25.9047 21.9078C25.623 21.8006 25.3257 21.7258 25.0173 21.687C24.6485 21.1988 24.488 20.7964 24.5414 20.4886C24.7133 19.4957 27.0613 18.3451 26.3248 16.0101C28.1239 16.3484 29.7492 17.1852 31.0509 18.3717C30.9638 18.9453 30.7954 19.3234 30.5482 19.4976ZM18.5131 31.563C19.3897 30.9453 22.1882 31.9477 23.1566 29.1528C23.4383 29.26 23.7355 29.3348 24.044 29.3736C24.4128 29.8618 24.5733 30.2642 24.5199 30.572C24.348 31.5649 22 32.7155 22.7365 35.0505C20.9374 34.7122 19.3121 33.8754 18.0104 32.6889C18.0975 32.1153 18.2659 31.7372 18.5131 31.563Z" fill="#B3B3B3" stroke="#B3B3B3" stroke-width="0.1"/>
<path d="M35.1865 15.8428C35.7215 15.8428 36.1553 15.409 36.1553 14.874C36.1553 14.339 35.7215 13.9053 35.1865 13.9053C34.6515 13.9053 34.2178 14.339 34.2178 14.874C34.2178 15.409 34.6515 15.8428 35.1865 15.8428Z" fill="#B3B3B3" stroke="#B3B3B3" stroke-width="0.1"/>
<path d="M13.874 15.8428C14.409 15.8428 14.8428 15.409 14.8428 14.874C14.8428 14.339 14.409 13.9053 13.874 13.9053C13.339 13.9053 12.9053 14.339 12.9053 14.874C12.9053 15.409 13.339 15.8428 13.874 15.8428Z" fill="#B3B3B3" stroke="#B3B3B3" stroke-width="0.1"/>
<path d="M35.1865 37.1553C35.7215 37.1553 36.1553 36.7215 36.1553 36.1865C36.1553 35.6515 35.7215 35.2178 35.1865 35.2178C34.6515 35.2178 34.2178 35.6515 34.2178 36.1865C34.2178 36.7215 34.6515 37.1553 35.1865 37.1553Z" fill="#B3B3B3" stroke="#B3B3B3" stroke-width="0.1"/>
<path d="M13.874 37.1553C14.409 37.1553 14.8428 36.7215 14.8428 36.1865C14.8428 35.6515 14.409 35.2178 13.874 35.2178C13.339 35.2178 12.9053 35.6515 12.9053 36.1865C12.9053 36.7215 13.339 37.1553 13.874 37.1553Z" fill="#B3B3B3" stroke="#B3B3B3" stroke-width="0.1"/>
</svg>
