<svg width="50" height="50" viewBox="0 0 50 50" fill="none" xmlns="http://www.w3.org/2000/svg">
<path d="M33.8438 13.875H24.1562C23.6212 13.875 23.1875 14.3088 23.1875 14.8438V18.7188C23.1875 19.2537 23.6212 19.6875 24.1562 19.6875H33.8438C34.3788 19.6875 34.8125 19.2537 34.8125 18.7188V14.8438C34.8125 14.3088 34.3788 13.875 33.8438 13.875ZM32.875 17.75H25.125V15.8125H32.875V17.75Z" fill="#B3B3B3"/>
<path d="M33.8438 21.625H24.1562C23.6212 21.625 23.1875 22.0588 23.1875 22.5938V26.4688C23.1875 27.0037 23.6212 27.4375 24.1562 27.4375H33.8438C34.3788 27.4375 34.8125 27.0037 34.8125 26.4688V22.5938C34.8125 22.0588 34.3788 21.625 33.8438 21.625ZM32.875 25.5H25.125V23.5625H32.875V25.5Z" fill="#B3B3B3"/>
<path d="M29 33.25C27.9317 33.25 27.0625 34.1192 27.0625 35.1875C27.0625 36.2558 27.9317 37.125 29 37.125C30.0683 37.125 30.9375 36.2558 30.9375 35.1875C30.9375 34.1192 30.0683 33.25 29 33.25Z" fill="#B3B3B3"/>
<path d="M29.9688 31.3125V30.3438C29.9688 29.8088 29.5351 29.375 29 29.375C28.4649 29.375 28.0312 29.8088 28.0312 30.3438V31.3125C28.0312 31.8475 28.4649 32.2812 29 32.2812C29.5351 32.2812 29.9688 31.8475 29.9688 31.3125Z" fill="#B3B3B3"/>
<path fill-rule="evenodd" clip-rule="evenodd" d="M13.9063 10H35.7812C37.3838 10 38.6875 11.3038 38.6875 12.9062V38.0938C38.6875 39.6962 37.3838 41 35.7812 41H13.9063C12.3037 41 11 39.6962 11 38.0938V12.9062C11 11.3038 12.3037 10 13.9063 10ZM22.2188 39.0625H35.7812C36.3154 39.0625 36.75 38.6279 36.75 38.0938V12.9062C36.75 12.3721 36.3154 11.9375 35.7812 11.9375H22.2188C21.6846 11.9375 21.25 12.3721 21.25 12.9062V38.0938C21.25 38.6279 21.6846 39.0625 22.2188 39.0625ZM19.4785 11.9375C19.371 12.2406 19.3125 12.5667 19.3125 12.9062V38.0938C19.3125 38.4333 19.371 38.7594 19.4785 39.0625H13.9063C13.3721 39.0625 12.9375 38.6279 12.9375 38.0938V12.9062C12.9375 12.3721 13.3721 11.9375 13.9063 11.9375H19.4785Z" fill="#B3B3B3"/>
</svg>
