<svg width="50" height="50" viewBox="0 0 50 50" fill="none" xmlns="http://www.w3.org/2000/svg">
<path d="M29.763 17.881H20.2369C18.9378 17.881 17.8809 18.9379 17.8809 20.237V29.7631C17.8809 31.0622 18.9378 32.1191 20.2369 32.1191H29.763C31.0621 32.1191 32.119 31.0622 32.119 29.7631V20.237C32.119 18.9378 31.0622 17.881 29.763 17.881ZM30.0916 29.7631C30.0916 29.9443 29.9442 30.0917 29.763 30.0917H20.2369C20.0558 30.0917 19.9083 29.9443 19.9083 29.7631V20.237C19.9083 20.0558 20.0557 19.9083 20.2369 19.9083H29.763C29.9441 19.9083 30.0916 20.0558 30.0916 20.237V29.7631Z" fill="#B3B3B3"/>
<path d="M39.9863 22.8158C40.5462 22.8158 41 22.3619 41 21.8021C41 21.2423 40.5462 20.7884 39.9863 20.7884H36.7394V18.7009H39.9863C40.5462 18.7009 41 18.247 41 17.6872C41 17.1273 40.5462 16.6735 39.9863 16.6735H36.7051C36.4759 14.9177 35.0822 13.524 33.3265 13.2949V10.0137C33.3265 9.45388 32.8727 9 32.3128 9C31.7529 9 31.2991 9.45388 31.2991 10.0137V13.2607H29.2115V10.0137C29.2115 9.45388 28.7577 9 28.1978 9C27.638 9 27.1841 9.45388 27.1841 10.0137V13.2607H22.8158V10.0137C22.8158 9.45388 22.362 9 21.8021 9C21.2422 9 20.7884 9.45388 20.7884 10.0137V13.2607H18.7009V10.0137C18.7009 9.45388 18.247 9 17.6872 9C17.1273 9 16.6735 9.45388 16.6735 10.0137V13.2949C14.9177 13.524 13.524 14.9177 13.2949 16.6735H10.0137C9.45382 16.6735 9 17.1273 9 17.6872C9 18.247 9.45382 18.7009 10.0137 18.7009H13.2606V20.7884H10.0137C9.45382 20.7884 9 21.2423 9 21.8021C9 22.3619 9.45382 22.8158 10.0137 22.8158H13.2606V27.1842H10.0137C9.45382 27.1842 9 27.6381 9 28.1979C9 28.7577 9.45382 29.2116 10.0137 29.2116H13.2606V31.2991H10.0137C9.45382 31.2991 9 31.753 9 32.3128C9 32.8727 9.45382 33.3265 10.0137 33.3265H13.2949C13.5241 35.0823 14.9178 36.476 16.6735 36.7051V39.9863C16.6735 40.5461 17.1273 41 17.6872 41C18.2471 41 18.7009 40.5461 18.7009 39.9863V36.7393H20.7885V39.9863C20.7885 40.5461 21.2423 41 21.8022 41C22.362 41 22.8159 40.5461 22.8159 39.9863V36.7393H27.1842V39.9863C27.1842 40.5461 27.638 41 28.1979 41C28.7578 41 29.2116 40.5461 29.2116 39.9863V36.7393H31.2991V39.9863C31.2991 40.5461 31.753 41 32.3128 41C32.8727 41 33.3265 40.5461 33.3265 39.9863V36.7051C35.0823 36.476 36.476 35.0822 36.7051 33.3265H39.9864C40.5462 33.3265 41.0001 32.8727 41.0001 32.3128C41.0001 31.753 40.5462 31.2991 39.9864 31.2991H36.7394V29.2116H39.9864C40.5462 29.2116 41.0001 28.7577 41.0001 28.1979C41.0001 27.6381 40.5462 27.1842 39.9864 27.1842H36.7394V22.8158H39.9863ZM34.712 32.8165C34.712 33.8616 33.8616 34.7119 32.8165 34.7119H17.1835C16.1384 34.7119 15.288 33.8616 15.288 32.8165V17.1835C15.288 16.1384 16.1384 15.2881 17.1835 15.2881H32.8165C33.8616 15.2881 34.712 16.1384 34.712 17.1835V32.8165Z" fill="#B3B3B3"/>
</svg>
