<svg width="50" height="50" viewBox="0 0 50 50" fill="none" xmlns="http://www.w3.org/2000/svg">
<path fill-rule="evenodd" clip-rule="evenodd" d="M18.9391 13.2225C18.3708 13.2225 17.9102 13.6832 17.9102 14.2514V16.1522H17.7672C17.199 16.1522 16.7383 16.6129 16.7383 17.1811V17.3241H14.8375C14.2693 17.3241 13.8086 17.7848 13.8086 18.353C13.8086 18.9212 14.2693 19.3819 14.8375 19.3819H16.7383V20.0765H14.8375C14.2693 20.0765 13.8086 20.5372 13.8086 21.1054C13.8086 21.6736 14.2693 22.1343 14.8375 22.1343H16.7383V22.2773C16.7383 22.8455 17.199 23.3062 17.7672 23.3062H17.9102V25.2069C17.9102 25.7752 18.3708 26.2359 18.9391 26.2359C19.5073 26.2359 19.968 25.7752 19.968 25.2069V23.3062H20.6625V25.2069C20.6625 25.7752 21.1232 26.2359 21.6914 26.2359C22.2597 26.2359 22.7203 25.7752 22.7203 25.2069V23.3062H22.8633C23.4316 23.3062 23.8922 22.8455 23.8922 22.2773V22.1343H25.793C26.3612 22.1343 26.8219 21.6736 26.8219 21.1054C26.8219 20.5372 26.3612 20.0765 25.793 20.0765L23.8922 20.0765V19.3819H25.793C26.3612 19.3819 26.8219 18.9212 26.8219 18.353C26.8219 17.7848 26.3612 17.3241 25.793 17.3241H23.8922V17.1811C23.8922 16.6129 23.4316 16.1522 22.8633 16.1522H22.7203L22.7203 14.2514C22.7203 13.6832 22.2597 13.2225 21.6914 13.2225C21.1232 13.2225 20.6625 13.6832 20.6625 14.2514V16.1522H19.968L19.968 14.2514C19.968 13.6832 19.5073 13.2225 18.9391 13.2225ZM18.7961 21.2484V18.21H21.8344V21.2484H18.7961Z" fill="#B3B3B3"/>
<path d="M30.3669 16.1522C29.7986 16.1522 29.338 16.6129 29.338 17.1811V22.2773C29.338 22.8455 29.7986 23.3062 30.3669 23.3062C30.9351 23.3062 31.3958 22.8455 31.3958 22.2773V17.1811C31.3958 16.6129 30.9351 16.1522 30.3669 16.1522Z" fill="#B3B3B3"/>
<path d="M34.0865 16.1522C33.5183 16.1522 33.0576 16.6129 33.0576 17.1811V22.2773C33.0576 22.8455 33.5183 23.3062 34.0865 23.3062C34.6548 23.3062 35.1154 22.8455 35.1154 22.2773V17.1811C35.1154 16.6129 34.6548 16.1522 34.0865 16.1522Z" fill="#B3B3B3"/>
<path fill-rule="evenodd" clip-rule="evenodd" d="M30.3669 26.4078C29.7986 26.4078 29.338 26.8685 29.338 27.4367V34.8766C29.338 35.4448 29.7986 35.9055 30.3669 35.9055H35.463C36.0312 35.9055 36.4919 35.4448 36.4919 34.8766V27.4367C36.4919 26.8685 36.0312 26.4078 35.463 26.4078H30.3669ZM31.3958 30.1277V28.4656H34.4341V30.1277H31.3958ZM31.3958 33.8477V32.1855H34.4341V33.8477H31.3958Z" fill="#B3B3B3"/>
<path d="M14.8375 30.127C14.2693 30.127 13.8086 30.5876 13.8086 31.1559C13.8086 31.7241 14.2693 32.1848 14.8375 32.1848H26.0289C26.5971 32.1848 27.0578 31.7241 27.0578 31.1559C27.0578 30.5876 26.5971 30.127 26.0289 30.127H14.8375Z" fill="#B3B3B3"/>
<path d="M14.8375 33.8477C14.2693 33.8477 13.8086 34.3083 13.8086 34.8766C13.8086 35.4448 14.2693 35.9055 14.8375 35.9055H26.0289C26.5971 35.9055 27.0578 35.4448 27.0578 34.8766C27.0578 34.3083 26.5971 33.8477 26.0289 33.8477H14.8375Z" fill="#B3B3B3"/>
<path fill-rule="evenodd" clip-rule="evenodd" d="M11.0289 10C10.4607 10 10 10.4607 10 11.0289V39.2711C10 39.8393 10.4607 40.3 11.0289 40.3L39.2711 40.3C39.8393 40.3 40.3 39.8393 40.3 39.2711L40.3 11.0289C40.3 10.4607 39.8393 10 39.2711 10H11.0289ZM12.0578 38.2422L12.0578 12.0578L38.2422 12.0578L38.2422 38.2422L12.0578 38.2422Z" fill="#B3B3B3"/>
</svg>
