<svg width="50" height="50" viewBox="0 0 50 50" fill="none" xmlns="http://www.w3.org/2000/svg">
<path d="M8.99609 33.9297H17.0312C17.5814 33.9297 18.0273 33.4837 18.0273 32.9336V29.9453H20.0195V32.9336C20.0195 33.4837 20.4655 33.9297 21.0156 33.9297H41.0039C41.554 33.9297 42 33.4837 42 32.9336V24.9648C42 24.4147 41.554 23.9688 41.0039 23.9688H39.9414V21.9766H41.0039C41.554 21.9766 42 21.5306 42 20.9805V16.9961C42 16.446 41.554 16 41.0039 16H8.99609C8.44598 16 8 16.446 8 16.9961V20.9805C8 21.5306 8.44598 21.9766 8.99609 21.9766H10.0586V23.9688H8.99609C8.44598 23.9688 8 24.4147 8 24.9648V32.9336C8 33.4837 8.44598 33.9297 8.99609 33.9297ZM9.99219 25.9609H11.0547C11.6048 25.9609 12.0508 25.515 12.0508 24.9648V20.9805C12.0508 20.4304 11.6048 19.9844 11.0547 19.9844H9.99219V17.9922H40.0078V19.9844H38.9453C38.3952 19.9844 37.9492 20.4304 37.9492 20.9805V24.9648C37.9492 25.515 38.3952 25.9609 38.9453 25.9609H40.0078V31.9375H37.9492V28.9492C37.9492 28.3991 37.5032 27.9531 36.9531 27.9531C36.403 27.9531 35.957 28.3991 35.957 28.9492V31.9375H33.9648V28.9492C33.9648 28.3991 33.5189 27.9531 32.9688 27.9531C32.4186 27.9531 31.9727 28.3991 31.9727 28.9492V31.9375H29.9805V28.9492C29.9805 28.3991 29.5345 27.9531 28.9844 27.9531C28.4343 27.9531 27.9883 28.3991 27.9883 28.9492V31.9375H25.9961V28.9492C25.9961 28.3991 25.5501 27.9531 25 27.9531C24.4499 27.9531 24.0039 28.3991 24.0039 28.9492V31.9375H22.0117V28.9492C22.0117 28.3991 21.5657 27.9531 21.0156 27.9531H17.0312C16.4811 27.9531 16.0352 28.3991 16.0352 28.9492V31.9375H14.043V28.9492C14.043 28.3991 13.597 27.9531 13.0469 27.9531C12.4968 27.9531 12.0508 28.3991 12.0508 28.9492V31.9375H9.99219V25.9609Z" fill="#B3B3B3"/>
<path d="M15.0391 25.9609H19.0234C19.5735 25.9609 20.0195 25.515 20.0195 24.9648V20.9805C20.0195 20.4304 19.5735 19.9844 19.0234 19.9844H15.0391C14.489 19.9844 14.043 20.4304 14.043 20.9805V24.9648C14.043 25.515 14.489 25.9609 15.0391 25.9609ZM16.0352 21.9766H18.0273V23.9688H16.0352V21.9766Z" fill="#B3B3B3"/>
<path d="M23.0078 25.9609H26.9922C27.5423 25.9609 27.9883 25.515 27.9883 24.9648V20.9805C27.9883 20.4304 27.5423 19.9844 26.9922 19.9844H23.0078C22.4577 19.9844 22.0117 20.4304 22.0117 20.9805V24.9648C22.0117 25.515 22.4577 25.9609 23.0078 25.9609ZM24.0039 21.9766H25.9961V23.9688H24.0039V21.9766Z" fill="#B3B3B3"/>
<path d="M30.9766 25.9609H34.9609C35.511 25.9609 35.957 25.515 35.957 24.9648V20.9805C35.957 20.4304 35.511 19.9844 34.9609 19.9844H30.9766C30.4265 19.9844 29.9805 20.4304 29.9805 20.9805V24.9648C29.9805 25.515 30.4265 25.9609 30.9766 25.9609ZM31.9727 21.9766H33.9648V23.9688H31.9727V21.9766Z" fill="#B3B3B3"/>
</svg>
