<svg width="34" height="28" viewBox="0 0 34 28" fill="none" xmlns="http://www.w3.org/2000/svg">
<path fill-rule="evenodd" clip-rule="evenodd" d="M33.0039 3.98438H5.97656V0.996094C5.97656 0.445908 5.53065 0 4.98047 0H0.996094C0.445908 0 0 0.445908 0 0.996094C0 1.54628 0.445908 1.99219 0.996094 1.99219H3.98438V7.96875V21.9141V26.8867C3.98438 27.4369 4.43028 27.8828 4.98047 27.8828C5.53065 27.8828 5.97656 27.4369 5.97656 26.8867V25.8984H33.0039C33.5541 25.8984 34 25.4525 34 24.9023V4.98047C34 4.43028 33.5541 3.98438 33.0039 3.98438ZM32.0078 23.9062H5.97656V5.97656H32.0078V23.9062ZM9.03125 20.9922H12.0039C12.5541 20.9922 13 20.5463 13 19.9961C13 19.4459 12.5541 19 12.0039 19H9.03125C8.48106 19 8.03516 19.4459 8.03516 19.9961C8.03516 20.5463 8.48106 20.9922 9.03125 20.9922ZM21.9863 17.9688V15.9785H19.9961C19.4459 15.9785 19 15.5326 19 14.9824C19 14.4322 19.4459 13.9863 19.9961 13.9863H21.9863V11.9961C21.9863 11.4459 22.4322 11 22.9824 11C23.5326 11 23.9785 11.4459 23.9785 11.9961V13.9863H25.9688C26.5189 13.9863 26.9648 14.4322 26.9648 14.9824C26.9648 15.5326 26.5189 15.9785 25.9688 15.9785H23.9785V17.9688C23.9785 18.5189 23.5326 18.9648 22.9824 18.9648C22.4322 18.9648 21.9863 18.5189 21.9863 17.9688ZM9.03125 9.96094C9.58144 9.96094 10.0273 9.51503 10.0273 8.96484C10.0273 8.41466 9.58144 7.96875 9.03125 7.96875C8.48106 7.96875 8.03516 8.41466 8.03516 8.96484C8.03516 9.51503 8.48106 9.96094 9.03125 9.96094ZM18 15C18 17.7614 20.2386 20 23 20C25.7614 20 28 17.7614 28 15C28 12.2386 25.7614 10 23 10C20.2386 10 18 12.2386 18 15ZM23 8C19.134 8 16 11.134 16 15C16 18.866 19.134 22 23 22C26.866 22 30 18.866 30 15C30 11.134 26.866 8 23 8ZM9.99219 12.9961V15.9688C9.99219 16.5189 9.54628 16.9648 8.99609 16.9648C8.44591 16.9648 8 16.5189 8 15.9688V12.9961C8 12.4459 8.44591 12 8.99609 12C9.54628 12 9.99219 12.4459 9.99219 12.9961Z" fill="#B3B3B3"/>
</svg>
