<svg width="32" height="32" viewBox="0 0 32 32" fill="none" xmlns="http://www.w3.org/2000/svg">
<path fill-rule="evenodd" clip-rule="evenodd" d="M9.73738 3.875C6.58849 3.875 3.90102 6.39616 3.87501 9.72833C3.87091 12.9895 6.52535 15.6001 9.73654 15.6001C12.8904 15.6001 15.5737 13.0749 15.5998 9.74667C15.6039 6.48245 12.9459 3.875 9.73738 3.875ZM9.78689 7.3117C9.80403 6.93336 9.94539 6.49956 10.2687 5.95052C11.4804 6.1197 12.5116 6.85831 13.0829 7.88701C11.8127 7.5551 10.837 7.87925 10.0436 8.32737C9.87038 7.99903 9.77025 7.67891 9.78689 7.3117ZM7.31156 9.68791C6.93322 9.67076 6.49941 9.52941 5.9504 9.20611C6.11958 7.99452 6.85819 6.96324 7.8869 6.39194C7.55498 7.6622 7.87913 8.63787 8.32725 9.43121C7.99892 9.60444 7.67878 9.70456 7.31156 9.68791ZM11.5879 13.0831C11.9198 11.8128 11.5956 10.8371 11.1475 10.0437C11.4758 9.8705 11.796 9.77038 12.1632 9.78703C12.5415 9.80418 12.9754 9.94553 13.5244 10.2688C13.3552 11.4805 12.6166 12.5118 11.5879 13.0831ZM9.20599 13.5245C7.99418 13.3552 6.96266 12.6164 6.39146 11.5874C7.49081 11.8754 8.44813 11.7021 9.43108 11.1476C9.60432 11.476 9.70448 11.7961 9.68784 12.1633C9.67071 12.5417 9.52935 12.9755 9.20599 13.5245Z" fill="#B3B3B3"/>
<path fill-rule="evenodd" clip-rule="evenodd" d="M19.9094 3.875C19.6391 3.875 19.3801 3.98235 19.189 4.17343L17.7359 5.62656C17.5449 5.81763 17.4375 6.07671 17.4375 6.34688V8.76875C17.4375 9.33142 17.8936 9.7875 18.4562 9.7875H24.2687C24.8314 9.7875 25.2875 9.33142 25.2875 8.76875V6.34688C25.2875 6.07671 25.1801 5.81757 24.9891 5.62655L23.536 4.17343C23.345 3.98235 23.0858 3.875 22.8156 3.875H19.9094ZM19.475 6.76883L20.3313 5.9125H22.3936L23.25 6.76883V7.75H19.475V6.76883Z" fill="#B3B3B3"/>
<path fill-rule="evenodd" clip-rule="evenodd" d="M19.9094 11.625C19.6391 11.625 19.3801 11.7324 19.189 11.9234L17.7359 13.3766C17.5449 13.5676 17.4375 13.8267 17.4375 14.0969V16.5187C17.4375 17.0814 17.8936 17.5375 18.4562 17.5375H24.2687C24.8314 17.5375 25.2875 17.0814 25.2875 16.5187V14.0969C25.2875 13.8267 25.1801 13.5676 24.9891 13.3766L23.536 11.9234C23.345 11.7323 23.0858 11.625 22.8156 11.625H19.9094ZM19.475 14.5188L20.3313 13.6625H22.3936L23.25 14.5188V15.5H19.475V14.5188Z" fill="#B3B3B3"/>
<path fill-rule="evenodd" clip-rule="evenodd" d="M1.01875 0C0.456146 0 0 0.456081 0 1.01875V20.3937C0 20.9564 0.456146 21.4125 1.01875 21.4125H3.875V23.7844C3.875 26.2158 5.85299 28.1937 8.28438 28.1937C14.0548 28.1937 17.5159 28.1924 19.5644 28.1916L19.9506 28.1914C20.9453 28.191 21.5556 28.1908 21.9172 28.1911C22.098 28.1913 22.2165 28.1915 22.2898 28.192L22.3422 28.1924C22.3682 29.8002 23.6842 31.1 25.298 31.1H27.175C27.7208 31.1 28.1665 30.6707 28.1925 30.1312H30.0812C30.6439 30.1312 31.1 29.6752 31.1 29.1125C31.1 28.5498 30.6439 28.0938 30.0812 28.0938H28.1937V26.2562H30.0812C30.6439 26.2562 31.1 25.8002 31.1 25.2375C31.1 24.6748 30.6439 24.2188 30.0812 24.2188H28.1925C28.1665 23.6793 27.7208 23.25 27.175 23.25H25.298C23.6924 23.25 22.37 24.5399 22.3422 26.1574C22.1812 26.1558 21.3866 26.1559 17.0875 26.156C15.046 26.1561 12.2141 26.1562 8.28438 26.1562C6.97657 26.1562 5.9125 25.0922 5.9125 23.7844V21.4125H28.1437C28.7064 21.4125 29.1625 20.9564 29.1625 20.3937V1.01875C29.1625 0.456081 28.7064 0 28.1437 0H1.01875ZM2.0375 19.375V2.0375H27.125V19.375H5.9125V17.4875C5.9125 16.9248 5.45635 16.4688 4.89375 16.4688C4.33115 16.4688 3.875 16.9248 3.875 17.4875V19.375H2.0375ZM24.3793 26.2062C24.3793 25.6997 24.7915 25.2875 25.298 25.2875H26.1562V29.0625H25.298C24.7915 29.0625 24.3793 28.6503 24.3793 28.1437V26.2062Z" fill="#B3B3B3"/>
</svg>
