<svg width="50" height="50" viewBox="0 0 50 50" fill="none" xmlns="http://www.w3.org/2000/svg">
<path fill-rule="evenodd" clip-rule="evenodd" d="M13.9766 13.9844H41.0039C41.5541 13.9844 42 14.4303 42 14.9805V34.9023C42 35.4525 41.5541 35.8984 41.0039 35.8984H29.9805V36.8945C29.9805 37.4447 29.5346 37.8906 28.9844 37.8906C28.4342 37.8906 27.9883 37.4447 27.9883 36.8945V35.8984H25.9961V36.8945C25.9961 37.4447 25.5502 37.8906 25 37.8906C24.4498 37.8906 24.0039 37.4447 24.0039 36.8945V35.8984H22.0117V36.8945C22.0117 37.4447 21.5658 37.8906 21.0156 37.8906C20.4654 37.8906 20.0195 37.4447 20.0195 36.8945V35.8984H18.0273V36.8945C18.0273 37.4447 17.5814 37.8906 17.0312 37.8906C16.4811 37.8906 16.0352 37.4447 16.0352 36.8945V35.8984H13.9766V38.8867C13.9766 39.4369 13.5307 39.8828 12.9805 39.8828C12.4303 39.8828 11.9844 39.4369 11.9844 38.8867V31.9141H8.99609C8.44591 31.9141 8 31.4682 8 30.918V18.9648C8 18.4147 8.44591 17.9688 8.99609 17.9688H11.9844V11.9922H8.99609C8.44591 11.9922 8 11.5463 8 10.9961C8 10.4459 8.44591 10 8.99609 10H12.9805C13.5307 10 13.9766 10.4459 13.9766 10.9961V13.9844ZM9.99219 29.9219H11.9844V27.9297H9.99219V29.9219ZM9.99219 25.9375H11.9844V23.9453H9.99219V25.9375ZM9.99219 21.9531H11.9844V19.9609H9.99219V21.9531ZM13.9766 15.9766V33.9062H40.0078V15.9766H13.9766ZM38.0156 24.9419C38.0154 28.7865 34.8577 31.9141 30.9766 31.9141C27.1315 31.9141 24.0039 28.7839 24.0039 24.9414C24.0039 21.0963 27.1341 17.969 30.976 17.9688H30.9771C34.858 17.969 38.0154 21.0966 38.0156 24.9409V24.9419ZM26.3188 26.7027C26.5167 27.2246 26.7995 27.705 27.1512 28.1266C27.8601 27.9665 28.4137 27.3922 28.5429 26.6721C28.4998 26.6117 28.4583 26.5505 28.4199 26.4869C27.9722 26.6674 27.4895 26.7626 26.9922 26.7626C26.7639 26.7626 26.539 26.7416 26.3188 26.7027ZM32.7978 28.9258C32.7978 29.1574 32.7763 29.3857 32.7361 29.609C33.2601 29.416 33.7431 29.1398 34.1685 28.7961C34.018 28.0729 33.4372 27.5061 32.7073 27.3754C32.6468 27.4182 32.5854 27.4597 32.5221 27.498C32.7026 27.9458 32.7978 28.4285 32.7978 28.9258ZM35.5506 27.0431C35.7915 26.5346 35.9477 25.9798 36.0016 25.3961C35.3723 25 34.5371 25.014 33.9228 25.4384C33.9104 25.5126 33.8951 25.586 33.8774 25.6584C34.5599 25.9497 35.1404 26.4342 35.5506 27.0431ZM35.6976 23.1829C35.4953 22.6561 35.2053 22.1715 34.8447 21.7469C34.115 21.8929 33.542 22.4763 33.4105 23.2107C33.4541 23.2719 33.4958 23.3344 33.535 23.3988C33.9903 23.2161 34.4836 23.1202 34.9941 23.1202C35.2333 23.1202 35.4683 23.142 35.6976 23.1829ZM33.0367 20.3965C32.5384 20.1757 31.9981 20.0323 31.4308 19.9822C31.0414 20.5962 31.0554 21.3941 31.4725 21.9951C31.5472 22.0076 31.6207 22.0226 31.6933 22.0405C31.9778 21.3739 32.4474 20.8048 33.0367 20.3965ZM30.9766 23.9453C30.4274 23.9453 29.9805 24.392 29.9805 24.9411V24.9417C29.9807 25.4908 30.4272 25.9375 30.9763 25.9375H30.9768C31.526 25.9375 31.9727 25.4908 31.9727 24.9417V24.9411C31.9727 24.392 31.5257 23.9453 30.9766 23.9453ZM30.4803 27.8877C30.4059 27.8752 30.3322 27.8602 30.2596 27.8423C29.9768 28.5048 29.5112 29.071 28.927 29.4788C29.4215 29.7029 29.9584 29.849 30.5226 29.9003C30.9117 29.2861 30.8977 28.4884 30.4803 27.8877ZM29.1553 20.957C29.1553 20.7288 29.1763 20.5039 29.2152 20.2836C28.6933 20.4816 28.2129 20.7646 27.7914 21.116C27.9514 21.825 28.5258 22.3785 29.2458 22.5075C29.3063 22.4647 29.3678 22.4232 29.4311 22.3848C29.2505 21.937 29.1553 21.4543 29.1553 20.957ZM28.0757 24.2244C27.4132 23.9417 26.8469 23.4761 26.4391 22.8919C26.215 23.3863 26.069 23.9233 26.0176 24.4875C26.6319 24.8766 27.4295 24.8625 28.0303 24.4452C28.0428 24.3707 28.0578 24.2971 28.0757 24.2244ZM17.0312 23.9453H21.0156C21.5658 23.9453 22.0117 23.4994 22.0117 22.9492C22.0117 22.399 21.5658 21.9531 21.0156 21.9531H17.0312C16.4811 21.9531 16.0352 22.399 16.0352 22.9492C16.0352 23.4994 16.4811 23.9453 17.0312 23.9453ZM21.0156 27.9297H17.0312C16.4811 27.9297 16.0352 27.4838 16.0352 26.9336C16.0352 26.3834 16.4811 25.9375 17.0312 25.9375H21.0156C21.5658 25.9375 22.0117 26.3834 22.0117 26.9336C22.0117 27.4838 21.5658 27.9297 21.0156 27.9297ZM18.0273 18.9648C18.0273 19.515 17.5814 19.9609 17.0312 19.9609C16.4811 19.9609 16.0352 19.515 16.0352 18.9648C16.0352 18.4147 16.4811 17.9688 17.0312 17.9688C17.5814 17.9688 18.0273 18.4147 18.0273 18.9648ZM21.0156 19.9609C21.5658 19.9609 22.0117 19.515 22.0117 18.9648C22.0117 18.4147 21.5658 17.9688 21.0156 17.9688C20.4654 17.9688 20.0195 18.4147 20.0195 18.9648C20.0195 19.515 20.4654 19.9609 21.0156 19.9609Z" fill="#B3B3B3"/>
</svg>
