<svg width="50" height="50" viewBox="0 0 50 50" fill="none" xmlns="http://www.w3.org/2000/svg">
<path fill-rule="evenodd" clip-rule="evenodd" d="M35.2187 10H13.9062C12.3038 10 11 11.3038 11 12.9062V38.0938C11 39.6962 12.3038 41 13.9062 41H35.2187C36.8212 41 38.125 39.6962 38.125 38.0938V12.9062C38.125 11.3038 36.8212 10 35.2187 10ZM13.9062 39.0625C13.3721 39.0625 12.9375 38.6279 12.9375 38.0938V34.2188H14.6067L18.75 36.7047V39.0625H13.9062ZM36.1875 38.0938C36.1875 38.6279 35.7529 39.0625 35.2187 39.0625H20.6875V36.1562C20.6875 35.816 20.5089 35.5006 20.2172 35.3255L18.2538 34.1475L20.1939 32.2074C26.5902 35.4529 34.25 30.7891 34.25 23.5625C34.25 18.2208 29.9042 13.875 24.5625 13.875C19.2208 13.875 14.875 18.2208 14.875 23.5625C14.875 26.6239 16.3028 29.3577 18.527 31.1343L16.5413 33.12C16.4395 33.0589 16.3456 33.0022 16.2587 32.9496C16.1972 32.9123 16.1392 32.877 16.0844 32.8437L15.9539 32.7641C15.2759 32.3505 15.1622 32.2812 14.875 32.2812H12.9375V12.9062C12.9375 12.3721 13.3721 11.9375 13.9062 11.9375H35.2187C35.7529 11.9375 36.1875 12.3721 36.1875 12.9062V38.0938ZM22.3412 28.69C21.9629 28.3117 21.3495 28.3117 20.9712 28.69L19.9069 29.7543C18.0289 28.3387 16.8125 26.0901 16.8125 23.5625C16.8125 19.2891 20.2891 15.8125 24.5625 15.8125C28.8359 15.8125 32.3125 19.2891 32.3125 23.5625C32.3125 29.0697 26.7132 32.8006 21.6552 30.7461L22.3412 30.06C22.7196 29.6817 22.7196 29.0683 22.3412 28.69ZM16.8125 14.8438C16.8125 15.3788 16.3788 15.8125 15.8438 15.8125C15.3087 15.8125 14.875 15.3788 14.875 14.8438C14.875 14.3087 15.3087 13.875 15.8438 13.875C16.3788 13.875 16.8125 14.3087 16.8125 14.8438ZM33.2813 15.8125C33.8163 15.8125 34.25 15.3788 34.25 14.8438C34.25 14.3087 33.8163 13.875 33.2813 13.875C32.7462 13.875 32.3125 14.3087 32.3125 14.8438C32.3125 15.3788 32.7462 15.8125 33.2813 15.8125ZM23.5937 34.2188C23.0588 34.2188 22.625 34.6525 22.625 35.1875V37.125C22.625 37.66 23.0588 38.0938 23.5937 38.0938C24.1287 38.0938 24.5625 37.66 24.5625 37.125V35.1875C24.5625 34.6525 24.1287 34.2188 23.5937 34.2188ZM25.5312 35.1875C25.5312 34.6525 25.965 34.2188 26.5 34.2188C27.035 34.2188 27.4687 34.6525 27.4687 35.1875V37.125C27.4687 37.66 27.035 38.0938 26.5 38.0938C25.965 38.0938 25.5312 37.66 25.5312 37.125V35.1875ZM28.4375 35.1875C28.4375 34.6525 28.8713 34.2188 29.4063 34.2188C29.9412 34.2188 30.375 34.6525 30.375 35.1875V37.125C30.375 37.66 29.9412 38.0938 29.4063 38.0938C28.8713 38.0938 28.4375 37.66 28.4375 37.125V35.1875ZM34.25 36.1562C34.25 36.6913 33.8163 37.125 33.2813 37.125C32.7462 37.125 32.3125 36.6913 32.3125 36.1562C32.3125 35.6212 32.7462 35.1875 33.2813 35.1875C33.8163 35.1875 34.25 35.6212 34.25 36.1562ZM24.5625 17.75C25.0975 17.75 25.5313 18.1837 25.5313 18.7188C25.5313 19.2537 25.0975 19.6875 24.5625 19.6875C22.4258 19.6875 20.6875 21.4258 20.6875 23.5625C20.6875 24.0975 20.2537 24.5312 19.7187 24.5312C19.1838 24.5312 18.75 24.0975 18.75 23.5625C18.75 20.3575 21.3575 17.75 24.5625 17.75ZM23.5938 28.4062C23.5938 28.9412 24.0275 29.375 24.5625 29.375C27.7675 29.375 30.375 26.7675 30.375 23.5625C30.375 23.0275 29.9412 22.5938 29.4063 22.5938C28.8713 22.5938 28.4375 23.0275 28.4375 23.5625C28.4375 25.6992 26.6992 27.4375 24.5625 27.4375C24.0275 27.4375 23.5938 27.8713 23.5938 28.4062ZM24.5625 25.5C23.4942 25.5 22.625 24.6308 22.625 23.5625C22.625 22.4942 23.4942 21.625 24.5625 21.625C25.6308 21.625 26.5 22.4942 26.5 23.5625C26.5 24.6308 25.6308 25.5 24.5625 25.5Z" fill="#B3B3B3"/>
</svg>
